<svg width="18" height="14" viewBox="0 0 18 14" fill="none" xmlns="http://www.w3.org/2000/svg">
<g clip-path="url(#clip0)">
<path d="M15.8 0H2.2C1.61652 0 1.05695 0.231783 0.644365 0.644363C0.231785 1.05694 0 1.61652 0 2.2L0 11.5C0 12.0835 0.231785 12.6431 0.644365 13.0556C1.05695 13.4682 1.61652 13.7 2.2 13.7H15.8C16.3835 13.7 16.9431 13.4682 17.3556 13.0556C17.7682 12.6431 18 12.0835 18 11.5V2.205C18.0007 1.91567 17.9442 1.62905 17.834 1.36156C17.7237 1.09407 17.5618 0.850952 17.3574 0.646133C17.1531 0.441315 16.9103 0.278815 16.6431 0.167942C16.3758 0.0570692 16.0893 -7.47228e-07 15.8 0ZM17 11.5C17 11.8183 16.8736 12.1235 16.6485 12.3485C16.4235 12.5736 16.1183 12.7 15.8 12.7H2.2C1.88174 12.7 1.57652 12.5736 1.35147 12.3485C1.12643 12.1235 1 11.8183 1 11.5V2.205C1 1.88674 1.12643 1.58152 1.35147 1.35647C1.57652 1.13143 1.88174 1.005 2.2 1.005H15.8C16.1183 1.005 16.4235 1.13143 16.6485 1.35647C16.8736 1.58152 17 1.88674 17 2.205V11.497V11.5Z" fill="#747E88"/>
<path d="M11.3522 6.73403L15.7522 2.78602C15.8516 2.69664 15.9113 2.57147 15.9183 2.43804C15.9254 2.30461 15.8791 2.17385 15.7897 2.07453C15.7003 1.9752 15.5752 1.91545 15.4417 1.90842C15.3083 1.90139 15.1775 1.94764 15.0782 2.03702L9.00723 7.48603L7.82423 6.42903C7.82423 6.42903 7.81723 6.42203 7.81723 6.41803C7.79165 6.3924 7.76425 6.36867 7.73523 6.34703L2.91623 2.03402C2.8165 1.94518 2.68557 1.89958 2.55224 1.90727C2.4189 1.91496 2.29407 1.9753 2.20523 2.07502C2.11638 2.17475 2.07078 2.30568 2.07847 2.43901C2.08616 2.57235 2.14651 2.69718 2.24623 2.78602L6.70023 6.76703L2.26423 10.92C2.21574 10.9651 2.17668 11.0193 2.1493 11.0795C2.12192 11.1397 2.10677 11.2048 2.10472 11.2709C2.10268 11.3371 2.11378 11.403 2.13738 11.4648C2.16098 11.5266 2.19662 11.5831 2.24223 11.631C2.28982 11.6811 2.34703 11.7211 2.41043 11.7486C2.47383 11.7761 2.54212 11.7905 2.61123 11.791C2.73844 11.7916 2.86111 11.7437 2.95423 11.657L7.45423 7.44503L8.67623 8.53602C8.7681 8.61894 8.88747 8.66484 9.01123 8.66484C9.13499 8.66484 9.25435 8.61894 9.34623 8.53602L10.6012 7.41102L15.0782 11.664C15.126 11.7098 15.1823 11.7457 15.244 11.7695C15.3057 11.7934 15.3716 11.8048 15.4377 11.803C15.5038 11.8012 15.569 11.7864 15.6293 11.7592C15.6896 11.7321 15.744 11.6933 15.7892 11.645C15.835 11.5973 15.8709 11.5409 15.8947 11.4792C15.9186 11.4175 15.93 11.3517 15.9282 11.2856C15.9264 11.2194 15.9116 11.1543 15.8844 11.094C15.8573 11.0336 15.8185 10.9793 15.7702 10.934L11.3522 6.73403Z" fill="#747E88"/>
</g>
<defs>
<clipPath id="clip0">
<rect width="18" height="13.698" fill="white"/>
</clipPath>
</defs>
</svg>
